<svg width="396" height="250" viewBox="0 0 396 250" fill="none" xmlns="http://www.w3.org/2000/svg">
<rect width="396" height="250" fill="white"/>
<path d="M56.3329 219.551C-11.5017 195.822 -58.4732 36.1808 163.172 36.1808C289.755 30.2654 326.389 -38.6488 375.633 30.7583C437.187 117.517 367.135 328.271 56.3329 219.551Z" fill="#FCC22D" fill-opacity="0.63"/>
<path d="M56.3329 219.551C-11.5017 195.822 -58.4732 36.1808 163.172 36.1808C289.755 30.2654 326.389 -38.6488 375.633 30.7583C437.187 117.517 367.135 328.271 56.3329 219.551Z" fill="url(#paint0_linear)"/>
<path d="M50 168.526V82.3537H73.2589V149.724H106.41V168.526H50Z" fill="white"/>
<path d="M115.949 158.742C115.949 155.127 117.009 152.337 119.129 150.372C121.288 148.408 124.409 147.425 128.491 147.425C132.378 147.425 135.361 148.408 137.442 150.372C139.522 152.337 140.562 155.127 140.562 158.742C140.562 162.279 139.483 165.049 137.324 167.053C135.204 169.018 132.26 170 128.491 170C124.605 170 121.543 169.018 119.306 167.053C117.068 165.088 115.949 162.318 115.949 158.742Z" fill="white"/>
<path d="M207.866 168.526L203.626 152.376H175.657L171.299 168.526H145.744L173.831 82H204.863L233.304 168.526H207.866ZM198.798 133.279L195.088 119.133C194.225 115.99 193.165 111.923 191.909 106.932C190.692 101.942 189.887 98.3662 189.494 96.205C189.141 98.209 188.435 101.51 187.375 106.107C186.354 110.705 184.058 119.762 180.485 133.279H198.798Z" fill="white"/>
<path d="M238.426 158.742C238.426 155.127 239.486 152.337 241.606 150.372C243.765 148.408 246.886 147.425 250.969 147.425C254.855 147.425 257.838 148.408 259.919 150.372C261.999 152.337 263.04 155.127 263.04 158.742C263.04 162.279 261.96 165.049 259.801 167.053C257.681 169.018 254.737 170 250.969 170C247.082 170 244.02 169.018 241.783 167.053C239.545 165.088 238.426 162.318 238.426 158.742Z" fill="white"/>
<path d="M340 109.762C340 119.389 337.154 126.835 331.462 132.1C325.809 137.327 317.762 139.94 307.32 139.94H300.784V168.526H277.525V82.3537H307.32C318.194 82.3537 326.359 84.731 331.815 89.4856C337.272 94.2402 340 100.999 340 109.762ZM300.784 120.96H305.023C308.517 120.96 311.285 119.978 313.326 118.013C315.406 116.049 316.447 113.337 316.447 109.879C316.447 104.064 313.228 101.156 306.79 101.156H300.784V120.96Z" fill="white"/>
<path d="M51.0029 196V186.72H53.5103V193.975H57.084V196H51.0029ZM60.918 196H58.436V188.808H60.918V196ZM58.3726 187.018C58.3726 186.646 58.4762 186.368 58.6836 186.187C58.891 186.005 59.2253 185.914 59.6865 185.914C60.1478 185.914 60.4842 186.007 60.6958 186.193C60.9074 186.379 61.0132 186.654 61.0132 187.018C61.0132 187.746 60.571 188.11 59.6865 188.11C58.8105 188.11 58.3726 187.746 58.3726 187.018ZM64.5361 196L61.7939 188.808H64.3838L65.6025 193.061C65.6068 193.082 65.6152 193.118 65.6279 193.169C65.6406 193.22 65.6533 193.281 65.666 193.353C65.6787 193.421 65.6893 193.495 65.6978 193.575C65.7104 193.651 65.7168 193.723 65.7168 193.791H65.7612C65.7612 193.571 65.7993 193.332 65.8755 193.074L67.1514 188.808H69.7349L66.9927 196H64.5361ZM74.9399 188.681C75.1558 188.681 75.361 188.698 75.5557 188.732L75.6953 188.757L75.4731 191.1C75.27 191.049 74.9886 191.023 74.6289 191.023C74.0872 191.023 73.6937 191.148 73.4482 191.398C73.2028 191.643 73.0801 191.999 73.0801 192.464V196H70.5981V188.808H72.4453L72.8325 189.957H72.9531C73.1605 189.576 73.4482 189.269 73.8164 189.037C74.1888 188.8 74.5633 188.681 74.9399 188.681ZM80.1768 196.127C78.9792 196.127 78.0482 195.81 77.3838 195.175C76.7236 194.536 76.3936 193.628 76.3936 192.452C76.3936 191.237 76.7004 190.306 77.314 189.659C77.9276 189.007 78.8035 188.681 79.9419 188.681C81.0252 188.681 81.861 188.965 82.4492 189.532C83.0417 190.095 83.3379 190.907 83.3379 191.969V193.074H78.9009C78.9178 193.476 79.0638 193.791 79.3389 194.02C79.6182 194.248 79.9969 194.362 80.4751 194.362C80.911 194.362 81.3109 194.322 81.6748 194.242C82.043 194.157 82.4408 194.015 82.8682 193.816V195.6C82.4788 195.799 82.0768 195.937 81.6621 196.013C81.2474 196.089 80.7523 196.127 80.1768 196.127ZM80.0308 190.37C79.7388 190.37 79.4933 190.463 79.2944 190.649C79.0998 190.831 78.9855 191.119 78.9517 191.512H81.0845C81.076 191.165 80.9766 190.888 80.7861 190.681C80.5999 190.473 80.3481 190.37 80.0308 190.37ZM88.2637 194.166C88.598 194.166 88.9979 194.083 89.4634 193.918V195.727C89.1291 195.871 88.8096 195.972 88.5049 196.032C88.2044 196.095 87.8511 196.127 87.4448 196.127C86.6112 196.127 86.0103 195.924 85.6421 195.518C85.2739 195.107 85.0898 194.479 85.0898 193.632V190.668H84.2202V189.659L85.3247 188.878L85.9658 187.367H87.5908V188.808H89.3555V190.668H87.5908V193.467C87.5908 193.933 87.8151 194.166 88.2637 194.166ZM96.3315 196.127C95.8195 196.127 95.3709 195.981 94.9858 195.689C94.605 195.397 94.3088 194.967 94.0972 194.4C93.8898 193.833 93.7861 193.171 93.7861 192.414C93.7861 191.246 94.021 190.332 94.4907 189.671C94.9604 189.011 95.6058 188.681 96.4268 188.681C96.8288 188.681 97.18 188.762 97.4805 188.922C97.7852 189.083 98.0623 189.354 98.312 189.735H98.3628C98.2824 189.172 98.2422 188.609 98.2422 188.046V186.123H100.743V196H98.8706L98.3374 195.092H98.2422C97.8148 195.782 97.1779 196.127 96.3315 196.127ZM97.3472 194.166C97.745 194.166 98.0243 194.041 98.1851 193.791C98.3501 193.541 98.439 193.156 98.4517 192.636V192.439C98.4517 191.804 98.3607 191.354 98.1787 191.087C97.9967 190.816 97.7111 190.681 97.3218 190.681C96.9959 190.681 96.742 190.835 96.5601 191.144C96.3823 191.449 96.2935 191.885 96.2935 192.452C96.2935 193.01 96.3844 193.436 96.5664 193.728C96.7484 194.02 97.0086 194.166 97.3472 194.166ZM104.634 186.732L104.729 186.872C104.34 188.421 103.966 189.608 103.606 190.433H101.841C102.129 189.092 102.336 187.858 102.463 186.732H104.634ZM111.553 196L111.096 194.261H108.081L107.611 196H104.856L107.884 186.682H111.229L114.295 196H111.553ZM110.576 192.204L110.176 190.681C110.083 190.342 109.968 189.904 109.833 189.367C109.702 188.829 109.615 188.444 109.573 188.211C109.535 188.427 109.458 188.783 109.344 189.278C109.234 189.773 108.987 190.748 108.602 192.204H110.576ZM118.434 196.127C117.258 196.127 116.365 195.81 115.755 195.175C115.15 194.54 114.848 193.628 114.848 192.439C114.848 191.246 115.176 190.321 115.832 189.665C116.487 189.009 117.421 188.681 118.631 188.681C119.465 188.681 120.25 188.863 120.986 189.227L120.256 191.062C119.955 190.93 119.678 190.827 119.424 190.75C119.17 190.67 118.906 190.63 118.631 190.63C118.229 190.63 117.918 190.786 117.698 191.1C117.478 191.413 117.368 191.855 117.368 192.426C117.368 193.577 117.793 194.153 118.644 194.153C119.371 194.153 120.07 193.941 120.738 193.518V195.492C120.099 195.915 119.331 196.127 118.434 196.127ZM125.442 196.127C124.265 196.127 123.373 195.81 122.763 195.175C122.158 194.54 121.855 193.628 121.855 192.439C121.855 191.246 122.183 190.321 122.839 189.665C123.495 189.009 124.428 188.681 125.639 188.681C126.472 188.681 127.257 188.863 127.994 189.227L127.264 191.062C126.963 190.93 126.686 190.827 126.432 190.75C126.178 190.67 125.914 190.63 125.639 190.63C125.237 190.63 124.926 190.786 124.706 191.1C124.486 191.413 124.375 191.855 124.375 192.426C124.375 193.577 124.801 194.153 125.651 194.153C126.379 194.153 127.077 193.941 127.746 193.518V195.492C127.107 195.915 126.339 196.127 125.442 196.127ZM136.042 192.388C136.042 193.565 135.725 194.483 135.09 195.143C134.46 195.799 133.575 196.127 132.437 196.127C131.345 196.127 130.476 195.791 129.828 195.118C129.185 194.445 128.863 193.535 128.863 192.388C128.863 191.216 129.179 190.306 129.809 189.659C130.444 189.007 131.333 188.681 132.475 188.681C133.182 188.681 133.806 188.831 134.348 189.132C134.889 189.432 135.306 189.864 135.598 190.427C135.894 190.985 136.042 191.639 136.042 192.388ZM131.383 192.388C131.383 193.006 131.466 193.478 131.631 193.804C131.796 194.125 132.073 194.286 132.462 194.286C132.847 194.286 133.118 194.125 133.275 193.804C133.436 193.478 133.516 193.006 133.516 192.388C133.516 191.775 133.436 191.311 133.275 190.998C133.114 190.685 132.839 190.528 132.45 190.528C132.069 190.528 131.796 190.685 131.631 190.998C131.466 191.307 131.383 191.77 131.383 192.388ZM146.294 196V192.09C146.294 191.603 146.226 191.239 146.091 190.998C145.96 190.753 145.75 190.63 145.462 190.63C145.082 190.63 144.802 190.793 144.625 191.119C144.447 191.444 144.358 191.954 144.358 192.648V196H141.87V192.09C141.87 191.603 141.806 191.239 141.679 190.998C141.552 190.753 141.347 190.63 141.063 190.63C140.674 190.63 140.391 190.803 140.213 191.15C140.035 191.497 139.946 192.064 139.946 192.852V196H137.464V188.808H139.337L139.648 189.697H139.794C139.984 189.367 140.259 189.115 140.619 188.941C140.983 188.768 141.396 188.681 141.857 188.681C142.894 188.681 143.622 188.996 144.041 189.627H144.237C144.44 189.331 144.722 189.1 145.082 188.935C145.445 188.766 145.845 188.681 146.281 188.681C147.132 188.681 147.76 188.899 148.167 189.335C148.573 189.771 148.776 190.433 148.776 191.322V196H146.294ZM154.781 196.127C154.417 196.127 154.091 196.068 153.803 195.949C153.515 195.826 153.23 195.609 152.946 195.295H152.832C152.908 195.799 152.946 196.112 152.946 196.235V199.123H150.464V188.808H152.483L152.832 189.722H152.946C153.408 189.028 154.044 188.681 154.857 188.681C155.653 188.681 156.277 189.011 156.729 189.671C157.182 190.332 157.409 191.237 157.409 192.388C157.409 193.548 157.172 194.462 156.698 195.13C156.228 195.795 155.589 196.127 154.781 196.127ZM153.949 190.63C153.585 190.63 153.329 190.761 153.181 191.023C153.037 191.282 152.959 191.667 152.946 192.179V192.375C152.946 192.993 153.029 193.44 153.194 193.715C153.359 193.99 153.619 194.127 153.975 194.127C154.292 194.127 154.523 193.992 154.667 193.721C154.81 193.446 154.882 192.993 154.882 192.363C154.882 191.745 154.81 191.303 154.667 191.036C154.523 190.765 154.284 190.63 153.949 190.63ZM163.521 196L163.045 195.048H162.995C162.66 195.463 162.32 195.746 161.973 195.898C161.626 196.051 161.177 196.127 160.627 196.127C159.95 196.127 159.417 195.924 159.027 195.518C158.638 195.111 158.443 194.54 158.443 193.804C158.443 193.038 158.71 192.469 159.243 192.096C159.776 191.72 160.549 191.508 161.56 191.461L162.76 191.423V191.322C162.76 190.729 162.468 190.433 161.884 190.433C161.359 190.433 160.693 190.611 159.884 190.966L159.167 189.329C160.005 188.897 161.063 188.681 162.341 188.681C163.263 188.681 163.976 188.91 164.48 189.367C164.988 189.824 165.242 190.463 165.242 191.284V196H163.521ZM161.681 194.375C161.981 194.375 162.237 194.28 162.449 194.089C162.665 193.899 162.772 193.651 162.772 193.347V192.788L162.201 192.813C161.384 192.843 160.976 193.144 160.976 193.715C160.976 194.155 161.211 194.375 161.681 194.375ZM173.716 188.808V190.008L172.732 190.37C172.867 190.615 172.935 190.901 172.935 191.227C172.935 192.001 172.662 192.602 172.116 193.029C171.575 193.457 170.764 193.67 169.685 193.67C169.418 193.67 169.207 193.653 169.05 193.62C168.991 193.73 168.961 193.833 168.961 193.931C168.961 194.053 169.061 194.149 169.26 194.216C169.459 194.28 169.719 194.312 170.041 194.312H171.234C172.846 194.312 173.652 194.991 173.652 196.349C173.652 197.225 173.278 197.906 172.529 198.393C171.784 198.88 170.737 199.123 169.387 199.123C168.367 199.123 167.58 198.952 167.025 198.609C166.475 198.27 166.2 197.782 166.2 197.143C166.2 196.284 166.733 195.729 167.8 195.479C167.58 195.386 167.387 195.236 167.222 195.029C167.061 194.821 166.981 194.616 166.981 194.413C166.981 194.189 167.042 193.992 167.165 193.823C167.288 193.649 167.544 193.444 167.933 193.207C167.561 193.042 167.267 192.784 167.051 192.433C166.839 192.081 166.733 191.654 166.733 191.15C166.733 190.368 167 189.76 167.533 189.329C168.066 188.897 168.828 188.681 169.818 188.681C169.95 188.681 170.176 188.696 170.498 188.726C170.819 188.755 171.056 188.783 171.208 188.808H173.716ZM168.295 196.895C168.295 197.098 168.405 197.261 168.625 197.384C168.845 197.511 169.139 197.574 169.507 197.574C170.108 197.574 170.589 197.498 170.948 197.346C171.312 197.198 171.494 197.005 171.494 196.768C171.494 196.578 171.384 196.442 171.164 196.362C170.944 196.286 170.629 196.248 170.218 196.248H169.247C168.98 196.248 168.754 196.309 168.568 196.432C168.386 196.559 168.295 196.713 168.295 196.895ZM169.076 191.163C169.076 191.899 169.332 192.268 169.844 192.268C170.081 192.268 170.263 192.177 170.39 191.995C170.521 191.813 170.586 191.54 170.586 191.176C170.586 190.431 170.339 190.059 169.844 190.059C169.332 190.059 169.076 190.427 169.076 191.163ZM179.353 196V192.077C179.353 191.599 179.283 191.239 179.143 190.998C179.008 190.753 178.788 190.63 178.483 190.63C178.064 190.63 177.761 190.797 177.575 191.131C177.389 191.466 177.296 192.039 177.296 192.852V196H174.814V188.808H176.687L176.998 189.697H177.144C177.355 189.358 177.647 189.104 178.02 188.935C178.396 188.766 178.828 188.681 179.314 188.681C180.11 188.681 180.728 188.912 181.168 189.373C181.612 189.834 181.834 190.484 181.834 191.322V196H179.353ZM186.995 196.127C185.798 196.127 184.867 195.81 184.202 195.175C183.542 194.536 183.212 193.628 183.212 192.452C183.212 191.237 183.519 190.306 184.132 189.659C184.746 189.007 185.622 188.681 186.76 188.681C187.844 188.681 188.679 188.965 189.268 189.532C189.86 190.095 190.156 190.907 190.156 191.969V193.074H185.719C185.736 193.476 185.882 193.791 186.157 194.02C186.437 194.248 186.815 194.362 187.293 194.362C187.729 194.362 188.129 194.322 188.493 194.242C188.861 194.157 189.259 194.015 189.687 193.816V195.6C189.297 195.799 188.895 195.937 188.48 196.013C188.066 196.089 187.571 196.127 186.995 196.127ZM186.849 190.37C186.557 190.37 186.312 190.463 186.113 190.649C185.918 190.831 185.804 191.119 185.77 191.512H187.903C187.894 191.165 187.795 190.888 187.604 190.681C187.418 190.473 187.167 190.37 186.849 190.37ZM200.389 196V192.09C200.389 191.603 200.321 191.239 200.186 190.998C200.054 190.753 199.845 190.63 199.557 190.63C199.176 190.63 198.897 190.793 198.719 191.119C198.542 191.444 198.453 191.954 198.453 192.648V196H195.964V192.09C195.964 191.603 195.901 191.239 195.774 190.998C195.647 190.753 195.442 190.63 195.158 190.63C194.769 190.63 194.485 190.803 194.308 191.15C194.13 191.497 194.041 192.064 194.041 192.852V196H191.559V188.808H193.432L193.743 189.697H193.889C194.079 189.367 194.354 189.115 194.714 188.941C195.078 188.768 195.49 188.681 195.952 188.681C196.988 188.681 197.716 188.996 198.135 189.627H198.332C198.535 189.331 198.817 189.1 199.176 188.935C199.54 188.766 199.94 188.681 200.376 188.681C201.227 188.681 201.855 188.899 202.261 189.335C202.667 189.771 202.871 190.433 202.871 191.322V196H200.389ZM208.031 196.127C206.834 196.127 205.903 195.81 205.238 195.175C204.578 194.536 204.248 193.628 204.248 192.452C204.248 191.237 204.555 190.306 205.168 189.659C205.782 189.007 206.658 188.681 207.796 188.681C208.88 188.681 209.715 188.965 210.304 189.532C210.896 190.095 211.192 190.907 211.192 191.969V193.074H206.755C206.772 193.476 206.918 193.791 207.193 194.02C207.473 194.248 207.851 194.362 208.33 194.362C208.765 194.362 209.165 194.322 209.529 194.242C209.897 194.157 210.295 194.015 210.723 193.816V195.6C210.333 195.799 209.931 195.937 209.517 196.013C209.102 196.089 208.607 196.127 208.031 196.127ZM207.885 190.37C207.593 190.37 207.348 190.463 207.149 190.649C206.954 190.831 206.84 191.119 206.806 191.512H208.939C208.931 191.165 208.831 190.888 208.641 190.681C208.454 190.473 208.203 190.37 207.885 190.37ZM217.134 196V192.077C217.134 191.599 217.064 191.239 216.924 190.998C216.789 190.753 216.569 190.63 216.264 190.63C215.845 190.63 215.543 190.797 215.356 191.131C215.17 191.466 215.077 192.039 215.077 192.852V196H212.595V188.808H214.468L214.779 189.697H214.925C215.136 189.358 215.428 189.104 215.801 188.935C216.177 188.766 216.609 188.681 217.096 188.681C217.891 188.681 218.509 188.912 218.949 189.373C219.394 189.834 219.616 190.484 219.616 191.322V196H217.134ZM224.827 194.166C225.161 194.166 225.561 194.083 226.027 193.918V195.727C225.693 195.871 225.373 195.972 225.068 196.032C224.768 196.095 224.415 196.127 224.008 196.127C223.175 196.127 222.574 195.924 222.206 195.518C221.837 195.107 221.653 194.479 221.653 193.632V190.668H220.784V189.659L221.888 188.878L222.529 187.367H224.154V188.808H225.919V190.668H224.154V193.467C224.154 193.933 224.379 194.166 224.827 194.166ZM237.542 189.671C237.542 190.708 237.235 191.51 236.621 192.077C236.012 192.64 235.144 192.921 234.019 192.921H233.314V196H230.807V186.72H234.019C235.191 186.72 236.071 186.976 236.659 187.488C237.247 188 237.542 188.728 237.542 189.671ZM233.314 190.877H233.771C234.148 190.877 234.446 190.772 234.666 190.56C234.89 190.348 235.002 190.056 235.002 189.684C235.002 189.058 234.655 188.745 233.961 188.745H233.314V190.877ZM242.347 196.127C241.149 196.127 240.218 195.81 239.554 195.175C238.894 194.536 238.563 193.628 238.563 192.452C238.563 191.237 238.87 190.306 239.484 189.659C240.097 189.007 240.973 188.681 242.112 188.681C243.195 188.681 244.031 188.965 244.619 189.532C245.212 190.095 245.508 190.907 245.508 191.969V193.074H241.071C241.088 193.476 241.234 193.791 241.509 194.02C241.788 194.248 242.167 194.362 242.645 194.362C243.081 194.362 243.481 194.322 243.845 194.242C244.213 194.157 244.611 194.015 245.038 193.816V195.6C244.649 195.799 244.247 195.937 243.832 196.013C243.417 196.089 242.922 196.127 242.347 196.127ZM242.201 190.37C241.909 190.37 241.663 190.463 241.464 190.649C241.27 190.831 241.155 191.119 241.122 191.512H243.254C243.246 191.165 243.146 190.888 242.956 190.681C242.77 190.473 242.518 190.37 242.201 190.37ZM251.252 188.681C251.468 188.681 251.674 188.698 251.868 188.732L252.008 188.757L251.786 191.1C251.583 191.049 251.301 191.023 250.941 191.023C250.4 191.023 250.006 191.148 249.761 191.398C249.515 191.643 249.393 191.999 249.393 192.464V196H246.911V188.808H248.758L249.145 189.957H249.266C249.473 189.576 249.761 189.269 250.129 189.037C250.501 188.8 250.876 188.681 251.252 188.681ZM258.571 193.791C258.571 194.561 258.309 195.143 257.784 195.537C257.259 195.93 256.506 196.127 255.524 196.127C254.991 196.127 254.528 196.097 254.134 196.038C253.741 195.983 253.339 195.879 252.928 195.727V193.74C253.313 193.91 253.734 194.049 254.191 194.159C254.653 194.269 255.063 194.324 255.423 194.324C255.96 194.324 256.229 194.201 256.229 193.956C256.229 193.829 256.153 193.717 256 193.62C255.852 193.518 255.417 193.323 254.693 193.036C254.033 192.765 253.571 192.458 253.309 192.115C253.047 191.768 252.916 191.33 252.916 190.801C252.916 190.133 253.174 189.612 253.69 189.24C254.206 188.867 254.936 188.681 255.88 188.681C256.354 188.681 256.798 188.734 257.213 188.84C257.632 188.941 258.066 189.092 258.514 189.291L257.841 190.89C257.511 190.742 257.162 190.617 256.794 190.516C256.426 190.41 256.125 190.357 255.893 190.357C255.486 190.357 255.283 190.456 255.283 190.655C255.283 190.778 255.353 190.884 255.493 190.973C255.637 191.057 256.047 191.233 256.724 191.5C257.228 191.707 257.602 191.91 257.848 192.109C258.097 192.308 258.279 192.543 258.394 192.813C258.512 193.08 258.571 193.406 258.571 193.791ZM266.817 192.388C266.817 193.565 266.5 194.483 265.865 195.143C265.234 195.799 264.35 196.127 263.211 196.127C262.12 196.127 261.25 195.791 260.603 195.118C259.959 194.445 259.638 193.535 259.638 192.388C259.638 191.216 259.953 190.306 260.583 189.659C261.218 189.007 262.107 188.681 263.25 188.681C263.956 188.681 264.58 188.831 265.122 189.132C265.664 189.432 266.081 189.864 266.373 190.427C266.669 190.985 266.817 191.639 266.817 192.388ZM262.158 192.388C262.158 193.006 262.24 193.478 262.405 193.804C262.57 194.125 262.847 194.286 263.237 194.286C263.622 194.286 263.893 194.125 264.049 193.804C264.21 193.478 264.291 193.006 264.291 192.388C264.291 191.775 264.21 191.311 264.049 190.998C263.889 190.685 263.613 190.528 263.224 190.528C262.843 190.528 262.57 190.685 262.405 190.998C262.24 191.307 262.158 191.77 262.158 192.388ZM272.777 196V192.077C272.777 191.599 272.708 191.239 272.568 190.998C272.432 190.753 272.212 190.63 271.908 190.63C271.489 190.63 271.186 190.797 271 191.131C270.814 191.466 270.721 192.039 270.721 192.852V196H268.239V188.808H270.111L270.422 189.697H270.568C270.78 189.358 271.072 189.104 271.444 188.935C271.821 188.766 272.253 188.681 272.739 188.681C273.535 188.681 274.153 188.912 274.593 189.373C275.037 189.834 275.259 190.484 275.259 191.322V196H272.777ZM281.486 196V192.077C281.486 191.599 281.417 191.239 281.277 190.998C281.141 190.753 280.921 190.63 280.617 190.63C280.198 190.63 279.895 190.797 279.709 191.131C279.523 191.466 279.43 192.039 279.43 192.852V196H276.948V188.808H278.82L279.131 189.697H279.277C279.489 189.358 279.781 189.104 280.153 188.935C280.53 188.766 280.962 188.681 281.448 188.681C282.244 188.681 282.862 188.912 283.302 189.373C283.746 189.834 283.968 190.484 283.968 191.322V196H281.486ZM290.348 196L289.872 195.048H289.821C289.486 195.463 289.146 195.746 288.799 195.898C288.452 196.051 288.003 196.127 287.453 196.127C286.776 196.127 286.243 195.924 285.854 195.518C285.464 195.111 285.27 194.54 285.27 193.804C285.27 193.038 285.536 192.469 286.069 192.096C286.603 191.72 287.375 191.508 288.386 191.461L289.586 191.423V191.322C289.586 190.729 289.294 190.433 288.71 190.433C288.185 190.433 287.519 190.611 286.71 190.966L285.993 189.329C286.831 188.897 287.889 188.681 289.167 188.681C290.09 188.681 290.803 188.91 291.306 189.367C291.814 189.824 292.068 190.463 292.068 191.284V196H290.348ZM288.507 194.375C288.807 194.375 289.063 194.28 289.275 194.089C289.491 193.899 289.599 193.651 289.599 193.347V192.788L289.027 192.813C288.211 192.843 287.802 193.144 287.802 193.715C287.802 194.155 288.037 194.375 288.507 194.375ZM296.238 196H293.756V186.123H296.238V196ZM300.453 196H297.971V188.808H300.453V196ZM297.908 187.018C297.908 186.646 298.011 186.368 298.219 186.187C298.426 186.005 298.76 185.914 299.222 185.914C299.683 185.914 300.019 186.007 300.231 186.193C300.443 186.379 300.548 186.654 300.548 187.018C300.548 187.746 300.106 188.11 299.222 188.11C298.346 188.11 297.908 187.746 297.908 187.018ZM307.74 193.791C307.74 194.561 307.478 195.143 306.953 195.537C306.428 195.93 305.675 196.127 304.693 196.127C304.16 196.127 303.697 196.097 303.303 196.038C302.91 195.983 302.508 195.879 302.097 195.727V193.74C302.482 193.91 302.903 194.049 303.36 194.159C303.822 194.269 304.232 194.324 304.592 194.324C305.129 194.324 305.398 194.201 305.398 193.956C305.398 193.829 305.322 193.717 305.169 193.62C305.021 193.518 304.585 193.323 303.862 193.036C303.202 192.765 302.74 192.458 302.478 192.115C302.216 191.768 302.084 191.33 302.084 190.801C302.084 190.133 302.343 189.612 302.859 189.24C303.375 188.867 304.105 188.681 305.049 188.681C305.523 188.681 305.967 188.734 306.382 188.84C306.801 188.941 307.235 189.092 307.683 189.291L307.01 190.89C306.68 190.742 306.331 190.617 305.963 190.516C305.595 190.41 305.294 190.357 305.062 190.357C304.655 190.357 304.452 190.456 304.452 190.655C304.452 190.778 304.522 190.884 304.662 190.973C304.806 191.057 305.216 191.233 305.893 191.5C306.397 191.707 306.771 191.91 307.017 192.109C307.266 192.308 307.448 192.543 307.562 192.813C307.681 193.08 307.74 193.406 307.74 193.791ZM312.59 196.127C311.392 196.127 310.461 195.81 309.797 195.175C309.137 194.536 308.807 193.628 308.807 192.452C308.807 191.237 309.113 190.306 309.727 189.659C310.341 189.007 311.217 188.681 312.355 188.681C313.438 188.681 314.274 188.965 314.862 189.532C315.455 190.095 315.751 190.907 315.751 191.969V193.074H311.314C311.331 193.476 311.477 193.791 311.752 194.02C312.031 194.248 312.41 194.362 312.888 194.362C313.324 194.362 313.724 194.322 314.088 194.242C314.456 194.157 314.854 194.015 315.281 193.816V195.6C314.892 195.799 314.49 195.937 314.075 196.013C313.66 196.089 313.165 196.127 312.59 196.127ZM312.444 190.37C312.152 190.37 311.906 190.463 311.708 190.649C311.513 190.831 311.399 191.119 311.365 191.512H313.498C313.489 191.165 313.39 190.888 313.199 190.681C313.013 190.473 312.761 190.37 312.444 190.37ZM311.25 188.123V187.938C311.902 187.24 312.315 186.79 312.488 186.586C312.666 186.383 312.812 186.201 312.926 186.041H315.643V186.174C315.305 186.445 314.839 186.79 314.247 187.208C313.654 187.627 313.206 187.932 312.901 188.123H311.25Z" fill="white"/>
<defs>
<linearGradient id="paint0_linear" x1="215.791" y1="232.867" x2="373.636" y2="3.59933" gradientUnits="userSpaceOnUse">
<stop stop-color="#FF3232" stop-opacity="0.63"/>
<stop offset="1" stop-color="white" stop-opacity="0"/>
</linearGradient>
</defs>
</svg>
